# xmcd
#
# Track frame offsets:
#	150
#	14706
#	24996
#	38446
#	47976
#	57634
#	68799
#	80374
#	92957
#	105429
#	114012
#	127706
#	140933
#	155956
#	170749
#	189601
#	202159
#	218131
#	239505
#	252096
#
# Disc length: 3597 seconds
#
# Revision: 0
# Processed by: cddbd v1.5.2PL0 Copyright (c) Steve Scherf et al.
# Submitted via: EZCDAudioConverter 2.1.7.1
#
DISCID=230e0b14
DTITLE=V/A - La Onda Vampi
DYEAR=2011
DGENRE=
TTITLE0=Mehrpouya - Dokhtare Shab
TTITLE1=Margarita Sierra - Cha Cha Twist
TTITLE2=Marta Kubišová - Já Tu S Tvárí Nemennou
TTITLE3=Emma De Angelis - Trip
TTITLE4=The Mohawks - Rocky Mountain Roundabout
TTITLE5=Melvin Davis - Chains Of Love
TTITLE6=Victor Olaiya - Things Got To Get Better
TTITLE7=Amos Milburn - Whiz-A-Shoo-Pepi-Dada
TTITLE8=El Gran Fellove - El Jamaiquino
TTITLE9=Antonio González 'El Pescaílla' - Tiritando
TTITLE10=Garotas Suecas - Bat Macumba
TTITLE11=Los Siderals - Dongoh
TTITLE12=Bola Johnson - Lagos Sisi
TTITLE13=Segun Bucknor - Dye Dye
TTITLE14=Spiteri - Hey Tono
TTITLE15=Los Beltons - Cumbia Pop
TTITLE16=Frente Cumbiero - La Bocachico
TTITLE17=Ramblers International - Muntie (Highlife Charanga)
TTITLE18=Mario Allison Y Su Combo - Cumbayea
TTITLE19=Joe Bataan - Latin Soul Square Dance
EXTD=
EXTT0=
EXTT1=
EXTT2=
EXTT3=
EXTT4=
EXTT5=
EXTT6=
EXTT7=
EXTT8=
EXTT9=
EXTT10=
EXTT11=
EXTT12=
EXTT13=
EXTT14=
EXTT15=
EXTT16=
EXTT17=
EXTT18=
EXTT19=
PLAYORDER=
